<svg width="20" height="17" viewBox="0 0 20 17" fill="none" xmlns="http://www.w3.org/2000/svg">
<path d="M19.3334 8.32002C19.3334 8.763 19.0042 9.12909 18.5771 9.18703L18.4584 9.19502L0.958372 9.19502C0.475124 9.19502 0.0833721 8.80327 0.0833721 8.32002C0.0833721 7.87704 0.412552 7.51095 0.839642 7.45301L0.958372 7.44502L18.4584 7.44502C18.9416 7.44502 19.3334 7.83677 19.3334 8.32002Z" fill="#3BB77E"/>
<path d="M8.63386 14.7284C8.97631 15.0694 8.9775 15.6234 8.63653 15.9659C8.32655 16.2772 7.84051 16.3065 7.49742 16.053L7.39909 15.9685L0.340761 8.94053C0.0285177 8.62963 0.000113487 8.14183 0.25556 7.79875L0.34071 7.70048L7.39904 0.671315C7.74146 0.330315 8.29548 0.331462 8.63648 0.673877C8.94648 0.985164 8.97371 1.47133 8.71884 1.81335L8.63392 1.91131L2.19855 8.32083L8.63386 14.7284Z" fill="#3BB77E"/>
</svg>
